<?xml version="1.0" encoding="UTF-8"?>
<!DOCTYPE svg PUBLIC "-//W3C//DTD SVG 1.1//EN" "http://www.w3.org/Graphics/SVG/1.1/DTD/svg11.dtd">
<!-- Creator: CorelDRAW 2019 (64-Bit) -->
<svg xmlns="http://www.w3.org/2000/svg" xml:space="preserve" width="512px" height="500px" version="1.1" style="shape-rendering:geometricPrecision; text-rendering:geometricPrecision; image-rendering:optimizeQuality; fill-rule:evenodd; clip-rule:evenodd"
viewBox="0 0 512 500"
 xmlns:xlink="http://www.w3.org/1999/xlink">
 <defs>
  <style type="text/css">
   <![CDATA[
    .fil0 {fill:#005387}
    .fil2 {fill:#96A9C9}
    .fil1 {fill:#FFCF46}
   ]]>
  </style>
 </defs>
 <g id="Layer_x0020_1">
  <metadata id="CorelCorpID_0Corel-Layer"/>
  <g id="_1896832169040">
   <path class="fil0" d="M494.7 392.55l-239.66 -389.88 -238.97 389.88c-9.78,14.68 -15.37,28.65 -15.37,43.32 0,27.25 21.67,46.82 58,60.79 -26.56,-17.47 -42.63,-37.73 -42.63,-60.79 0,-58.69 106.91,-106.2 238.27,-106.2 131.35,0 238.26,47.51 238.26,106.2 0,23.06 -16.77,44.72 -44.72,62.19 39.13,-13.28 62.89,-33.54 62.89,-62.19 -0.7,-14.67 -6.29,-28.64 -16.07,-43.32z"/>
   <path class="fil1" d="M255.04 293.33c-66.38,-89.43 0,-161.4 0,-161.4l0 0c0,0 66.37,71.27 0,161.4l0 0z"/>
   <path class="fil2" d="M292.77 330.37c15.37,0 27.95,-12.58 27.95,-27.25 0,-15.37 -12.58,-27.25 -27.95,-27.25l-74.76 0c-15.38,0 -27.95,12.57 -27.95,27.25 0,15.37 12.57,27.25 27.95,27.25l74.76 0z"/>
   <path class="fil0" d="M417.84 474.3c34.24,0 37.03,-32.14 13.27,-42.62 -8.38,-3.49 -64.98,-28.64 -64.98,-28.64l70.57 -0.01c-1.39,-10.48 -8.38,-17.47 -18.86,-17.47 0,0 -40.53,0 -48.21,0 -35.64,0 -35.64,31.45 -13.98,41.23 11.88,5.59 63.58,28.65 63.58,28.65l-85.24 0c0,2.09 14.67,18.86 30.05,18.86l53.8 0z"/>
   <path class="fil0" d="M250.84 455.44c29.35,0 70.57,0 70.57,0 0,2.09 -14.67,18.86 -30.04,18.86 -5.59,0 -44.02,0 -51.71,0 -11.88,0 -18.86,-8.38 -18.86,-20.26 0,-3.49 0,-68.47 0,-68.47l30.04 -0.01 0 69.88z"/>
   <path class="fil0" d="M150.23 385.56l0 0 -38.43 0 0 0 -53.8 89.44c13.97,0 32.14,-4.19 39.83,-18.16 0.69,-0.7 1.39,-2.1 2.09,-3.5l61.49 0c1.4,2.1 2.09,3.49 2.09,3.49 8.39,13.98 25.86,18.17 39.83,18.17l-53.1 -89.44zm-39.13 48.92c9.08,-15.38 19.57,-32.84 19.57,-32.84l0 0c1.39,2.09 11.17,18.16 19.56,32.84l-39.13 0z"/>
  </g>
 </g>
</svg>
