<?xml version="1.0" encoding="UTF-8"?>
<!DOCTYPE svg PUBLIC "-//W3C//DTD SVG 1.1//EN" "http://www.w3.org/Graphics/SVG/1.1/DTD/svg11.dtd">
<!-- Creator: CorelDRAW 2019 (64-Bit) -->
<svg xmlns="http://www.w3.org/2000/svg" xml:space="preserve" width="2700px" height="500px" version="1.1" style="shape-rendering:geometricPrecision; text-rendering:geometricPrecision; image-rendering:optimizeQuality; fill-rule:evenodd; clip-rule:evenodd"
viewBox="0 0 2700 500"
 xmlns:xlink="http://www.w3.org/1999/xlink">
 <defs>
  <style type="text/css">
   <![CDATA[
    .fil5 {fill:#221E1F}
    .fil6 {fill:#231F20}
    .fil7 {fill:#58585A}
    .fil8 {fill:#818284}
    .fil9 {fill:#A7A8AC}
    .fil4 {fill:#A8A9AD}
    .fil0 {fill:#E41937}
    .fil1 {fill:#E51938}
    .fil3 {fill:#FDFDFD}
    .fil2 {fill:#FEFEFE}
    .fil10 {fill:black;fill-rule:nonzero}
   ]]>
  </style>
 </defs>
 <g id="Layer_x0020_1">
  <metadata id="CorelCorpID_0Corel-Layer"/>
  <path class="fil0" d="M1752.05 316c11.25,-28.09 47.96,-75.22 67.52,-104.74 18.75,-28.29 53.8,-77.14 68.02,-105.49 24.19,19.32 53.21,74.92 74.24,105.02 23.04,32.99 49.65,78.54 74.34,104.82l68.81 0.28c-7.05,-22.72 -73.65,-114.32 -91.52,-139.12 -18.68,-25.94 -28.81,-44 -45.56,-67.08 -17.79,-24.5 -30.74,-42 -45.64,-67.06l-60.08 -0.64c-24.55,40.61 -55.53,82.55 -83.22,122.83 -29.95,43.57 -53.72,80.63 -84.53,123.61 -16.86,-35.03 5.6,-22.92 -170.85,-23.36l-0.76 -222.84 -64.62 -1.37 -0.2 275.13 294.05 0.01z"/>
  <path class="fil0" d="M2238.4 265.55l-49.64 -0.28 0.03 -66.16c58.95,-0.83 123.17,-9.37 147.33,32.45 -14.41,38.19 -51.89,33.99 -97.72,33.99zm-49.57 -173.96c41.64,-0.74 110.45,-10.99 123.13,32.91 -21.79,31.38 -74.88,25.1 -122.7,24.51l-0.43 -57.42zm-68.29 223.05c282.06,39.36 300.35,-65.2 262.94,-121.5 -6.07,-9.12 -15.94,-15.88 -25.9,-22.4 20.5,-35.33 48.92,-86.81 -41.98,-117.44 -43.01,-14.5 -143.26,-14.37 -194.7,-10.69l-0.36 272.03z"/>
  <path class="fil0" d="M951.43 244.3c-16.54,45.64 -107.89,54.45 -134.19,3.56 -11.35,-21.94 -0.57,-17.9 -68.5,-17.48 0.24,124.26 193.12,117.91 248.1,59.3 45.18,-48.19 10.38,-95.92 -34.87,-115.1 -69.3,-29.37 -127.75,-7.91 -135.16,-57.72 27.09,-22.9 108.81,-39.15 114.56,24.59l67.36 0.28c-2.46,-144.48 -290.71,-109.3 -244.36,10.54 7.84,20.27 29.33,31.68 54.03,40.75 48.71,17.88 109.53,8.13 133.03,51.28z"/>
  <path class="fil0" d="M2495.63 118.55c12.39,-37.44 91.27,-49.78 115.06,0.78l5.02 9c0.44,-1 2.2,3 3.35,4.48l57.01 0.01c1.21,-60.26 -37.19,-85.85 -92.47,-92.55 -108.73,-13.17 -180.04,47.46 -147.92,107.18 31.54,58.65 177.18,40.95 183.93,84.11 5.99,38.21 -121.37,74.85 -137.9,-10.6l-63.39 0.74c-6.8,111.23 175.75,122.86 242.58,63.6 48.52,-43.02 22.34,-96.62 -24.89,-118.37 -38.22,-17.59 -120.88,-15.6 -140.38,-48.38z"/>
  <path class="fil0" d="M12.65 325.78l68.96 -0.63c37.88,-48.22 118.44,-185.59 145.38,-204.71 30.86,42.1 116.42,178.36 141.65,204.33l70.16 0.83c-7.68,-21.39 -29.92,-46.42 -42.85,-66.94 -33.81,-53.66 -115.63,-168.68 -139.42,-204.36 -34.64,-0.21 -47.58,0 -59.48,0 -5.29,0 -35.32,47.25 -93.65,132.84 -18.31,26.88 -84.88,117.66 -90.75,138.64z"/>
  <polygon class="fil1" points="442.32,99.08 531.52,100.95 533.15,323.3 597.48,325.63 598.77,101.03 688.47,100.66 689.73,49.96 443.16,50.05 "/>
  <path class="fil2" d="M2238.4 265.55c45.83,0 83.31,4.2 97.72,-33.99 -24.16,-41.82 -88.38,-33.28 -147.33,-32.45l-0.03 66.16 49.64 0.28z"/>
  <path class="fil3" d="M2189.26 149.01c47.82,0.59 100.91,6.87 122.7,-24.51 -12.68,-43.9 -81.49,-33.65 -123.13,-32.91l0.43 57.42z"/>
  <rect class="fil4" transform="matrix(4.20577 -4.20577 4.20577 4.20577 185.152 242.461)" width="9" height="9"/>
  <rect class="fil4" transform="matrix(4.20577 -4.20577 4.20577 4.20577 1849.21 242.461)" width="9" height="9"/>
  <g id="_2399092502848">
   <circle class="fil5" cx="1237.93" cy="28.89" r="23.79"/>
   <circle class="fil6" cx="1199.27" cy="67.55" r="20.82"/>
   <circle class="fil6" cx="1270.65" cy="67.55" r="20.82"/>
   <circle class="fil7" cx="1237.93" cy="106.21" r="17.84"/>
   <circle class="fil7" cx="1312.28" cy="106.21" r="17.84"/>
   <circle class="fil7" cx="1312.28" cy="106.21" r="17.84"/>
   <circle class="fil7" cx="1160.6" cy="106.21" r="17.84"/>
   <circle class="fil7" cx="1199.27" cy="144.88" r="14.86"/>
   <circle class="fil7" cx="1124.91" cy="144.88" r="14.86"/>
   <circle class="fil7" cx="1273.61" cy="144.88" r="14.86"/>
   <circle class="fil7" cx="1347.96" cy="144.88" r="14.86"/>
   <circle class="fil8" cx="1086.26" cy="180.56" r="14.86"/>
   <circle class="fil8" cx="1160.62" cy="180.56" r="14.86"/>
   <circle class="fil8" cx="1237.93" cy="180.56" r="14.86"/>
   <circle class="fil8" cx="1312.27" cy="180.56" r="14.86"/>
   <circle class="fil8" cx="1386.63" cy="180.56" r="14.86"/>
   <circle class="fil8" cx="1350.93" cy="219.23" r="11.89"/>
   <circle class="fil8" cx="1273.62" cy="219.23" r="11.89"/>
   <circle class="fil8" cx="1196.3" cy="219.23" r="11.89"/>
   <circle class="fil8" cx="1121.94" cy="219.23" r="11.89"/>
   <circle class="fil9" cx="1160.6" cy="254.91" r="11.89"/>
   <circle class="fil9" cx="1234.95" cy="254.91" r="11.89"/>
   <circle class="fil9" cx="1312.28" cy="254.91" r="11.89"/>
   <circle class="fil9" cx="1200.07" cy="292.76" r="9.73"/>
   <circle class="fil9" cx="1271.45" cy="292.76" r="9.73"/>
   <circle class="fil9" cx="1235.76" cy="330.06" r="9.73"/>
  </g>
  <polygon class="fil10" points="69.87,497.24 69.87,478.22 32.18,478.22 32.18,441.06 65.43,441.06 65.43,423.64 32.18,423.64 32.18,390.22 68.1,390.22 68.1,371.37 11.74,371.37 11.74,497.24 "/>
  <polygon id="1" class="fil10" points="164.63,497.24 132.99,430.93 161.61,371.37 139.74,371.37 121.25,414.75 102.58,371.37 80.36,371.37 108.81,430.93 77.34,497.24 99.56,497.24 120.72,449.06 141.7,497.24 "/>
  <path id="2" class="fil10" d="M248.19 483.73l-12.27 -14.4c-3.91,6.04 -10.13,11.02 -18.31,11.02 -17.42,0 -25.96,-20.8 -25.96,-46.04 0,-25.6 8.54,-46.23 25.6,-46.23 7.83,0 14.05,3.56 18.85,10.49l12.26 -14.93c-6.75,-9.78 -17.95,-15.47 -32.35,-15.47 -28.09,0 -46.4,27.56 -46.4,66.14 0,38.22 17.95,66.13 46.4,66.13 15.47,0 25.6,-6.93 32.18,-16.71z"/>
  <polygon id="3" class="fil10" points="321.43,497.24 321.43,478.22 283.74,478.22 283.74,441.06 316.99,441.06 316.99,423.64 283.74,423.64 283.74,390.22 319.66,390.22 319.66,371.37 263.3,371.37 263.3,497.24 "/>
  <polygon id="4" class="fil10" points="396.99,497.24 396.99,477.51 362.32,477.51 362.32,371.37 340.81,371.37 340.81,497.24 "/>
  <polygon id="5" class="fil10" points="467.03,497.24 467.03,477.51 432.37,477.51 432.37,371.37 410.86,371.37 410.86,497.24 "/>
  <polygon id="6" class="fil10" points="539.04,497.24 539.04,478.22 501.35,478.22 501.35,441.06 534.59,441.06 534.59,423.64 501.35,423.64 501.35,390.22 537.26,390.22 537.26,371.37 480.9,371.37 480.9,497.24 "/>
  <polygon id="7" class="fil10" points="636.99,497.24 636.99,371.37 618.5,371.37 618.68,460.8 618.15,460.8 582.77,371.37 558.41,371.37 558.41,497.24 577.61,497.24 577.26,408.35 577.79,408.35 613.53,497.24 "/>
  <path id="8" class="fil10" d="M735.66 483.73l-12.27 -14.4c-3.91,6.04 -10.13,11.02 -18.31,11.02 -17.42,0 -25.95,-20.8 -25.95,-46.04 0,-25.6 8.53,-46.23 25.6,-46.23 7.82,0 14.04,3.56 18.84,10.49l12.27 -14.93c-6.76,-9.78 -17.96,-15.47 -32.36,-15.47 -28.09,0 -46.4,27.56 -46.4,66.14 0,38.22 17.96,66.13 46.4,66.13 15.47,0 25.6,-6.93 32.18,-16.71z"/>
  <polygon id="9" class="fil10" points="808.91,497.24 808.91,478.22 771.22,478.22 771.22,441.06 804.46,441.06 804.46,423.64 771.22,423.64 771.22,390.22 807.13,390.22 807.13,371.37 750.77,371.37 750.77,497.24 "/>
  <polygon id="10" class="fil10" points="884.29,497.24 884.29,371.37 862.95,371.37 862.95,497.24 "/>
  <polygon id="11" class="fil10" points="988.47,497.24 988.47,371.37 969.98,371.37 970.15,460.8 969.62,460.8 934.24,371.37 909.89,371.37 909.89,497.24 929.09,497.24 928.73,408.35 929.26,408.35 965,497.24 "/>
  <path id="12" class="fil10" d="M1122.33 497.24l-30.75 -125.87 -27.2 0 -31.29 125.87 21.33 0 6.4 -26.67 33.07 0 6.22 26.67 22.22 0zm-31.11 -43.38l-27.73 0 13.69 -62.4 0.71 0 13.33 62.4z"/>
  <polygon id="13" class="fil10" points="1214.07,497.24 1214.07,371.37 1195.58,371.37 1195.76,460.8 1195.22,460.8 1159.85,371.37 1135.49,371.37 1135.49,497.24 1154.69,497.24 1154.33,408.35 1154.87,408.35 1190.6,497.24 "/>
  <polygon id="14" class="fil10" points="1294.78,389.51 1294.78,371.37 1226.51,371.37 1226.51,389.51 1250.16,389.51 1250.16,497.24 1271.14,497.24 1271.14,389.51 "/>
  <polygon id="15" class="fil10" points="1328.56,497.24 1328.56,371.37 1307.23,371.37 1307.23,497.24 "/>
  <polygon id="16" class="fil10" points="1461.36,497.24 1461.36,371.37 1431.32,371.37 1407.67,463.46 1406.96,463.46 1382.78,371.37 1354.16,371.37 1354.16,497.24 1373.54,497.24 1373.18,400.53 1373.72,400.53 1398.43,497.24 1415.14,497.24 1440.38,400.53 1440.92,400.53 1440.56,497.24 "/>
  <polygon id="17" class="fil10" points="1508.12,497.24 1508.12,371.37 1486.79,371.37 1486.79,497.24 "/>
  <path id="18" class="fil10" d="M1606.79 483.73l-12.27 -14.4c-3.91,6.04 -10.13,11.02 -18.31,11.02 -17.42,0 -25.96,-20.8 -25.96,-46.04 0,-25.6 8.54,-46.23 25.6,-46.23 7.83,0 14.05,3.56 18.85,10.49l12.27 -14.93c-6.76,-9.78 -17.96,-15.47 -32.36,-15.47 -28.09,0 -46.4,27.56 -46.4,66.14 0,38.22 17.95,66.13 46.4,66.13 15.47,0 25.6,-6.93 32.18,-16.71z"/>
  <path id="19" class="fil10" d="M1696.39 497.24l-22.58 -57.96c8.89,-2.48 19.73,-12.44 19.73,-32 0,-25.06 -14.93,-35.91 -35.73,-35.91l-35.91 0 0 125.87 20.62 0 0 -53.69 11.91 0 19.56 53.69 22.4 0zm-23.82 -88.89c0,12.98 -7.65,19.56 -17.96,19.56l-12.09 0 0 -38.76 12.09 0c8.53,0 17.96,3.91 17.96,19.2z"/>
  <path id="20" class="fil10" d="M1798.26 434.13c0,-39.65 -17.25,-65.96 -45.34,-65.96 -28.62,0 -45.33,26.31 -45.33,65.96 0,39.64 17.07,66.31 45.33,66.31 28.09,0 45.34,-26.67 45.34,-66.31zm-22.05 0c0,25.78 -7.82,46.04 -23.29,46.04 -15.64,0 -23.29,-20.26 -23.29,-46.04 0,-25.78 7.65,-45.87 23.29,-45.87 15.29,0 23.29,20.09 23.29,45.87z"/>
  <path id="21" class="fil10" d="M1890.88 462.04c0,-19.2 -11.38,-28.62 -20.8,-30.76l0 -0.35c8.71,-3.56 16.53,-12.27 16.53,-27.91 0,-25.96 -20.09,-31.65 -35.02,-31.65l-33.42 0 0 125.87 37.33 0c16.18,0 35.38,-8.89 35.38,-35.2zm-23.47 -55.64c0,12.79 -8.71,17.77 -17.24,17.77l-12.09 0 0 -35.02 11.73 0c9.07,0 17.6,4.44 17.6,17.25zm3.03 53.86c0,13.16 -8.54,19.2 -18.85,19.2l-13.51 0 0 -39.29 12.98 0c8.89,0 19.38,5.34 19.38,20.09z"/>
  <polygon id="22" class="fil10" points="1931.77,497.24 1931.77,371.37 1910.44,371.37 1910.44,497.24 "/>
  <path id="23" class="fil10" d="M2034.17 497.24l-30.75 -125.87 -27.2 0 -31.29 125.87 21.33 0 6.4 -26.67 33.07 0 6.22 26.67 22.22 0zm-31.11 -43.38l-27.73 0 13.69 -62.4 0.71 0 13.33 62.4z"/>
  <polygon id="24" class="fil10" points="2103.51,497.24 2103.51,477.51 2068.84,477.51 2068.84,371.37 2047.33,371.37 2047.33,497.24 "/>
  <polygon id="25" class="fil10" points="2198.62,389.51 2198.62,371.37 2130.35,371.37 2130.35,389.51 2154,389.51 2154,497.24 2174.98,497.24 2174.98,389.51 "/>
  <polygon id="26" class="fil10" points="2269.2,497.24 2269.2,478.22 2231.51,478.22 2231.51,441.06 2264.76,441.06 2264.76,423.64 2231.51,423.64 2231.51,390.22 2267.42,390.22 2267.42,371.37 2211.07,371.37 2211.07,497.24 "/>
  <path id="27" class="fil10" d="M2349.73 380.44c-6.75,-8 -17.24,-12.27 -29.86,-12.27 -17.43,0 -35.74,11.56 -35.74,37.51 0,20.63 11.74,29.16 25.25,35.92 11.02,5.51 18.84,11.02 18.84,21.86 0,11.02 -6.75,17.6 -15.64,17.6 -8,0 -16.18,-4.09 -21.69,-10.66l-11.56 15.64c7.11,8.36 19.74,14.4 33.6,14.4 19.56,0 36.09,-13.69 36.09,-38.22 0,-21.34 -14.58,-30.4 -27.02,-36.62 -10.31,-5.16 -17.42,-9.96 -17.42,-20.63 0,-12.44 8,-17.6 16,-17.6 6.75,0 12.8,2.85 17.42,8.36l11.73 -15.29z"/>
  <polygon id="28" class="fil10" points="2422.45,389.51 2422.45,371.37 2354.18,371.37 2354.18,389.51 2377.82,389.51 2377.82,497.24 2398.8,497.24 2398.8,389.51 "/>
  <polygon id="29" class="fil10" points="2456.22,497.24 2456.22,371.37 2434.89,371.37 2434.89,497.24 "/>
  <polygon id="30" class="fil10" points="2560.41,497.24 2560.41,371.37 2541.92,371.37 2542.09,460.8 2541.56,460.8 2506.18,371.37 2481.83,371.37 2481.83,497.24 2501.03,497.24 2500.67,408.35 2501.2,408.35 2536.94,497.24 "/>
  <path id="31" class="fil10" d="M2660.85 489.6l0 -63.83 -34.67 0 0 18.49 15.29 0 0 32.54c-2.84,2.13 -7.64,3.55 -13.33,3.55 -17.78,0 -26.13,-20.44 -26.13,-46.22 0,-24.71 8.35,-46.05 25.95,-46.05 7.82,0 14.4,3.38 19.2,10.31l12.27 -14.93c-6.94,-9.6 -17.96,-15.29 -32.71,-15.29 -28.45,0 -46.23,27.56 -46.23,65.96 0,39.29 17.78,65.78 47.83,65.78 14.57,0 24.89,-4.27 32.53,-10.31z"/>
 </g>
</svg>
