<?xml version="1.0" encoding="UTF-8"?>
<!DOCTYPE svg PUBLIC "-//W3C//DTD SVG 1.1//EN" "http://www.w3.org/Graphics/SVG/1.1/DTD/svg11.dtd">
<!-- Creator: CorelDRAW 2019 (64-Bit) -->
<svg xmlns="http://www.w3.org/2000/svg" xml:space="preserve" width="680px" height="500px" version="1.1" style="shape-rendering:geometricPrecision; text-rendering:geometricPrecision; image-rendering:optimizeQuality; fill-rule:evenodd; clip-rule:evenodd"
viewBox="0 0 680 500"
 xmlns:xlink="http://www.w3.org/1999/xlink">
 <defs>
  <style type="text/css">
   <![CDATA[
    .fil0 {fill:#5FB74D}
    .fil1 {fill:#7B763C}
    .fil2 {fill:white}
   ]]>
  </style>
 </defs>
 <g id="Layer_x0020_1">
  <metadata id="CorelCorpID_0Corel-Layer"/>
  <path class="fil0" d="M235.76 241.1c28.05,-21.41 47.51,-37.68 63.79,-74.74 14.46,-32.93 20.01,-76.79 35.77,-105.53 7.73,74.92 53.88,128.67 107.57,175.02 -39.05,-7.2 -51.48,-21.49 -103.63,-15.43 -34.02,3.96 -73.25,22.23 -103.5,20.68zm101.1 -209.12c-74.99,-49.78 -143.03,-21.56 -127.3,77.23 -87.17,13.75 -85.23,127.81 -0.31,143.01 -22.55,96.63 71.24,132.57 127.61,75.22 90.61,64.83 144.22,-1.83 128.52,-74.58 84.97,-17.3 87.88,-127.42 -0.28,-143.97 15.16,-97.11 -67.9,-131.55 -128.24,-76.91z"/>
  <path class="fil1" d="M612.08 408.47c43.68,-12.07 57.43,52.55 18.19,63.75 -43.1,12.29 -62.14,-51.6 -18.19,-63.75zm1.16 -22.14c-64.45,6.13 -66.95,96.84 -4.43,107.1 87.97,14.45 89.68,-115.18 4.43,-107.1z"/>
  <path class="fil1" d="M25.82 448.08c35.48,-0.14 34.82,27.03 0.19,25.45 -0.28,-8.48 0.09,-16.97 -0.19,-25.45zm-0.21 -31.79c0.21,-7.01 0.1,-8.91 0.77,-9.09 25.04,-6.62 17.46,34.76 0.33,21.91 -0.86,-0.64 -1.29,-3.51 -1.1,-12.82zm-24.06 76.94c36.17,0 59.11,5.03 70.25,-18.81 5.36,-20.57 -0.97,-23.59 -12.93,-38.88 17.71,-46.05 -5.24,-48.37 -57.32,-48.37l0 106.06z"/>
  <path class="fil1" d="M517.43 428.18l-12.92 2.74c-0.43,-14.86 -0.43,-12.5 0,-25.82 16.43,0.72 29.83,14.4 12.92,23.08zm28.05 71.19l3.12 0 14.63 -14.79c-8.31,-14.69 -19.44,-26.39 -27.3,-40.38 40.76,-51.64 -12.04,-57.03 -55.79,-57.03l-1.3 106.06 21.32 0 2.19 -41.3c16.05,-2.11 12.59,0.23 23.47,16.12 9.1,13.3 13.38,18.47 19.66,31.32z"/>
  <path class="fil1" d="M265.03 499.37l8.66 0c5.57,-14.38 9.23,-27.31 17.7,-33.87 13.41,-10.4 32.87,-4.23 41.41,13.35 3.26,6.71 5.72,14.6 8.07,20.52l8.65 0c3.36,-2.73 7.66,-6.83 11.23,-9.86 -5.37,-17.95 -15.8,-37.96 -23.48,-54.79 -7.09,-15.53 -15.54,-41.23 -29.99,-49.06 -19.85,11.5 -46.44,82.42 -53.49,103.85l11.24 9.86zm32.69 -55.29l18.8 0.55 -8.48 -22.08 -10.32 21.53z"/>
  <path class="fil1" d="M462.32 481.83l0.35 -44.11c-14.51,-0.29 -4.3,-1.98 -19.82,4.92l-3.78 21.44c-0.35,1.2 -1.2,2.91 -1.52,3.87 -0.3,0.95 -1.16,2.46 -1.77,3.68 -62.7,17.67 -79.11,-88.25 19.42,-56.69l6.97 -20.15c-157.02,-33.38 -107.14,143.25 0.15,87.04z"/>
  <path class="fil1" d="M91.85 491.38l65.33 0.67c0.13,-27.21 -13.01,-18.55 -41.9,-18.55l-1.87 -24.66c32.14,-0.01 36.4,8.96 38.52,-18.49l-38.81 0 1.64 -23.5 38.44 -0.91 5.64 -18.64 -66.39 0.19 -0.6 103.89z"/>
  <path class="fil1" d="M178.11 387.53l-7.32 17.15 35.74 3.04 0.9 84.22 22.18 0 0.65 -84.14c31.73,-2.53 33.08,8.35 37.58,-20.63l-89.73 0.36z"/>
  <path class="fil2" d="M612.08 408.47c-43.95,12.15 -24.91,76.04 18.19,63.75 39.24,-11.2 25.49,-75.82 -18.19,-63.75z"/>
 </g>
</svg>
