<?xml version="1.0" encoding="UTF-8"?>
<!DOCTYPE svg PUBLIC "-//W3C//DTD SVG 1.1//EN" "http://www.w3.org/Graphics/SVG/1.1/DTD/svg11.dtd">
<!-- Creator: CorelDRAW 2019 (64-Bit) -->
<svg xmlns="http://www.w3.org/2000/svg" xml:space="preserve" width="200px" height="200px" version="1.1" style="shape-rendering:geometricPrecision; text-rendering:geometricPrecision; image-rendering:optimizeQuality; fill-rule:evenodd; clip-rule:evenodd"
viewBox="0 0 200 200"
 xmlns:xlink="http://www.w3.org/1999/xlink"
 enable-background="new 0 0 512.418 512.418">
 <defs>
  <style type="text/css">
   <![CDATA[
    .fil0 {fill:white}
   ]]>
  </style>
 </defs>
 <g id="Layer_x0020_1">
  <metadata id="CorelCorpID_0Corel-Layer"/>
  <g id="_2409798737280">
   <g>
    <path class="fil0" d="M168.59 30.41c-38.35,-38.36 -100.45,-38.36 -138.81,0 -38.36,38.36 -38.36,100.45 0,138.82 38.36,38.36 100.45,38.36 138.81,0 38.36,-38.36 38.37,-100.45 0,-138.82zm-4.1 124.82c-4.58,-4.1 -9.49,-7.73 -14.66,-10.85 3.42,-11.81 5.44,-24.8 5.92,-38.31l28.86 0c-1.31,18.21 -8.3,35.28 -20.12,49.16zm-150.72 -49.16l28.85 0c0.48,13.51 2.51,26.5 5.92,38.31 -5.17,3.12 -10.07,6.75 -14.66,10.85 -11.82,-13.88 -18.81,-30.95 -20.11,-49.16l0 0zm20.11 -61.67c4.59,4.1 9.5,7.73 14.67,10.86 -3.42,11.81 -5.45,24.8 -5.93,38.3l-28.85 0c1.3,-18.2 8.29,-35.27 20.11,-49.16l0 0zm59.05 12.16c-10.2,-0.73 -20.04,-3.25 -29.15,-7.39 5.3,-13.66 15.08,-30.04 29.15,-34.1l0 41.49zm0 12.53l0 24.47 -37.79 0c0.43,-11.42 2.05,-22.39 4.74,-32.43 10.37,4.53 21.51,7.24 33.05,7.96zm0 36.98l0 24.48c-11.54,0.72 -22.68,3.42 -33.05,7.96 -2.69,-10.04 -4.31,-21.01 -4.74,-32.44l37.79 0zm0 37.01l0 41.49c-14.07,-4.06 -23.85,-20.44 -29.15,-34.1 9.11,-4.14 18.95,-6.66 29.15,-7.39l0 0zm12.51 0c10.2,0.73 20.04,3.25 29.16,7.39 -5.3,13.66 -15.08,30.04 -29.16,34.1l0 -41.49zm0 -12.53l0 -24.48 37.8 0c-0.44,11.43 -2.06,22.4 -4.75,32.44 -10.36,-4.54 -21.51,-7.24 -33.05,-7.96zm0 -36.99l0 -24.47c11.54,-0.72 22.69,-3.43 33.05,-7.96 2.69,10.04 4.31,21.01 4.75,32.43l-37.8 0zm0 -37l0 -41.49c14.08,4.06 23.86,20.44 29.16,34.1 -9.12,4.14 -18.96,6.66 -29.16,7.39zm28.1 -35.24c8.01,3.5 15.47,8.26 22.17,14.16 -3.19,2.81 -6.55,5.36 -10.06,7.63 -3.12,-7.72 -7.1,-15.22 -12.11,-21.79l0 0zm-80.81 21.79c-3.52,-2.27 -6.88,-4.82 -10.07,-7.63 6.7,-5.9 14.17,-10.66 22.18,-14.16 -5.01,6.57 -9,14.07 -12.11,21.79l0 0zm0 113.41c3.11,7.73 7.1,15.23 12.11,21.8 -8.01,-3.5 -15.48,-8.26 -22.18,-14.16 3.19,-2.81 6.55,-5.36 10.07,-7.64l0 0zm92.92 0c3.51,2.28 6.87,4.83 10.06,7.64 -6.69,5.9 -14.16,10.66 -22.17,14.16 5.01,-6.57 8.99,-14.07 12.11,-21.8l0 0zm10.1 -62.96c-0.48,-13.5 -2.5,-26.49 -5.92,-38.3 5.17,-3.13 10.08,-6.75 14.66,-10.86 11.82,13.89 18.81,30.96 20.12,49.16l-28.86 0z" data-original="#000000" data-old_color="#000000"/>
   </g>
  </g>
 </g>
</svg>
