<?xml version="1.0" encoding="UTF-8"?>
<!DOCTYPE svg PUBLIC "-//W3C//DTD SVG 1.1//EN" "http://www.w3.org/Graphics/SVG/1.1/DTD/svg11.dtd">
<!-- Creator: CorelDRAW 2019 (64-Bit) -->
<svg xmlns="http://www.w3.org/2000/svg" xml:space="preserve" width="380px" height="500px" version="1.1" style="shape-rendering:geometricPrecision; text-rendering:geometricPrecision; image-rendering:optimizeQuality; fill-rule:evenodd; clip-rule:evenodd"
viewBox="0 0 380 500"
 xmlns:xlink="http://www.w3.org/1999/xlink">
 <defs>
  <style type="text/css">
   <![CDATA[
    .fil0 {fill:#3378BC}
    .fil1 {fill:#419154}
    .fil2 {fill:#98C843}
    .fil3 {fill:white}
    .fil4 {fill:#419154;fill-rule:nonzero}
   ]]>
  </style>
   <mask id="id0">
  <radialGradient id="id1" gradientUnits="userSpaceOnUse" cx="64.86" cy="95.17" r="0" fx="64.86" fy="95.17">
   <stop offset="0" style="stop-opacity:0; stop-color:white"/>
   <stop offset="1" style="stop-opacity:1; stop-color:white"/>
  </radialGradient>
    <rect style="fill:url(#id1)" x="64.86" y="95.17" width="234.79" height="181.24"/>
   </mask>
   <mask id="id2">
  <linearGradient id="id3" gradientUnits="userSpaceOnUse" x1="369.11" y1="214.08" x2="46.51" y2="279.04">
   <stop offset="0" style="stop-opacity:1; stop-color:white"/>
   <stop offset="1" style="stop-opacity:0; stop-color:white"/>
  </linearGradient>
    <rect style="fill:url(#id3)" x="29.92" y="0.74" width="319.95" height="363.63"/>
   </mask>
   <mask id="id4">
  <radialGradient id="id5" gradientUnits="userSpaceOnUse" cx="107.38" cy="27.13" r="0" fx="107.38" fy="27.13">
   <stop offset="0" style="stop-opacity:0; stop-color:white"/>
   <stop offset="1" style="stop-opacity:1; stop-color:white"/>
  </radialGradient>
    <rect style="fill:url(#id5)" x="107.38" y="27.13" width="43.61" height="43.61"/>
   </mask>
 </defs>
 <g id="Layer_x0020_1">
  <metadata id="CorelCorpID_0Corel-Layer"/>
  <path class="fil0" style="mask:url(#id0)" d="M263.17 170.46c18.74,14.97 27.05,6.66 24.93,-24.93 47.29,95.47 -60.79,148.03 -140.95,125.82 -102.09,-28.28 -113.97,-153.36 -8.62,-175.68 48.38,-4.43 89.92,20.49 124.64,74.79z"/>
  <path class="fil1" d="M51.29 133.06c-37.51,166.51 198.65,223.67 267.97,81.02 16.83,-18 16.83,-30.46 0,-37.39 -9.42,-46.3 -32.27,-81.61 -68.55,-105.95 -48.63,-6.84 -71.49,-29.69 -68.55,-68.54 35.2,-0.08 58.06,16.53 68.55,49.85 14.15,-39.97 39.08,-56.59 74.78,-49.85 -1.71,29.43 -18.33,52.28 -49.85,68.54 69.31,59.9 90.08,128.45 62.31,205.65 -101.2,185.09 -388.06,49.6 -286.66,-143.33z"/>
  <path class="fil2" style="mask:url(#id2)" d="M51.29 133.06c-37.51,166.51 198.65,223.67 267.97,81.02 16.83,-18 16.83,-30.46 0,-37.39 -9.42,-46.3 -32.27,-81.61 -68.55,-105.95 -48.63,-6.84 -71.49,-29.69 -68.55,-68.54 35.2,-0.08 58.06,16.53 68.55,49.85 14.15,-39.97 39.08,-56.59 74.78,-49.85 -1.71,29.43 -18.33,52.28 -49.85,68.54 69.31,59.9 90.08,128.45 62.31,205.65 -101.2,185.09 -388.06,49.6 -286.66,-143.33z"/>
  <circle class="fil3" cx="129.19" cy="48.94" r="21.81"/>
  <path class="fil0" style="mask:url(#id4)" d="M129.19 27.13c12.04,0 21.8,9.76 21.8,21.81 0,12.04 -9.76,21.8 -21.8,21.8 -12.05,0 -21.81,-9.76 -21.81,-21.8 0,-12.05 9.76,-21.81 21.81,-21.81z"/>
  <polygon class="fil4" points="71.06,498.99 54.19,498.99 18.56,453.59 12.87,459.95 12.87,498.99 -0.17,498.99 -0.17,401.28 12.87,401.28 12.87,446.42 53.07,401.28 68.64,401.28 28.23,444.92 "/>
  <path id="1" class="fil4" d="M154.5 498.99l-16.87 0 -30.93 -38.84 -14.83 0 0 38.84 -13.04 0 0 -97.71 25.2 0c5.6,0 10.29,0.32 14.07,0.92 3.79,0.61 7.39,2.04 10.8,4.26 3.4,2.19 6.11,5.02 8.11,8.46 1.99,3.48 2.98,7.76 2.98,12.89 0,7.16 -1.82,13.17 -5.45,17.96 -3.63,4.82 -8.58,8.38 -14.83,10.71l34.79 42.51zm-28.09 -70.15c0,-2.85 -0.49,-5.36 -1.5,-7.55 -1.01,-2.2 -2.55,-3.99 -4.66,-5.38 -1.83,-1.23 -3.99,-2.08 -6.43,-2.58 -2.44,-0.51 -5.49,-0.76 -9.11,-0.76l-12.84 0 0 36.69 11.4 0c3.72,0 7.06,-0.33 10.04,-0.98 2.95,-0.65 5.51,-2 7.59,-4.03 1.88,-1.84 3.27,-4.01 4.17,-6.54 0.89,-2.54 1.34,-5.49 1.34,-8.87z"/>
  <path id="2" class="fil4" d="M200.4 500.74c-6.38,0 -12.27,-1.07 -17.63,-3.2 -5.35,-2.15 -9.99,-5.36 -13.89,-9.59 -3.89,-4.23 -6.92,-9.54 -9.05,-15.88 -2.15,-6.34 -3.22,-13.62 -3.22,-21.84 0,-8.18 1.03,-15.3 3.11,-21.37 2.08,-6.07 5.11,-11.38 9.1,-15.88 3.89,-4.37 8.51,-7.71 13.86,-9.99 5.33,-2.31 11.31,-3.45 17.92,-3.45 3.27,0 6.36,0.24 9.23,0.71 2.87,0.49 5.51,1.1 7.98,1.84 2.08,0.65 4.25,1.48 6.45,2.46 2.21,0.99 4.39,2.06 6.54,3.25l0 15.66 -1.05 0c-1.15,-1.03 -2.6,-2.29 -4.4,-3.74 -1.79,-1.46 -3.98,-2.89 -6.56,-4.32 -2.49,-1.33 -5.2,-2.42 -8.13,-3.28 -2.93,-0.87 -6.32,-1.29 -10.17,-1.29 -4.14,0 -8.09,0.85 -11.8,2.55 -3.72,1.7 -6.99,4.21 -9.77,7.5 -2.76,3.32 -4.91,7.49 -6.43,12.5 -1.55,5 -2.31,10.64 -2.31,16.91 0,6.68 0.81,12.41 2.42,17.23 1.64,4.82 3.83,8.87 6.63,12.19 2.71,3.22 5.92,5.66 9.59,7.3 3.67,1.63 7.57,2.44 11.67,2.44 3.76,0 7.24,-0.45 10.44,-1.37 3.18,-0.91 6.02,-2.08 8.51,-3.47 2.42,-1.36 4.48,-2.75 6.25,-4.16 1.75,-1.42 3.11,-2.62 4.12,-3.63l0.99 0 0 15.5c-2.15,1.01 -4.17,1.97 -6.07,2.91 -1.91,0.92 -4.21,1.81 -6.92,2.69 -2.85,0.92 -5.49,1.61 -7.93,2.1 -2.42,0.47 -5.58,0.72 -9.48,0.72z"/>
  <polygon id="3" class="fil4" points="242.98,498.99 242.98,401.28 304.14,401.28 304.14,412.84 256.02,412.84 256.02,439.59 300.91,439.59 300.91,451.15 256.02,451.15 256.02,487.43 304.14,487.43 304.14,498.99 "/>
  <path id="4" class="fil4" d="M345.6 500.74c-7.08,0 -13.1,-0.74 -18.05,-2.19 -4.98,-1.48 -9.64,-3.3 -14,-5.43l0 -16.3 0.91 0c4.28,4.01 9.12,7.12 14.54,9.32 5.4,2.21 10.62,3.31 15.64,3.31 7.14,0 12.56,-1.5 16.24,-4.48 3.65,-3 5.49,-6.92 5.49,-11.8 0,-3.9 -0.97,-7.06 -2.87,-9.5 -1.93,-2.44 -4.97,-4.26 -9.14,-5.42 -3.03,-0.88 -5.78,-1.62 -8.27,-2.18 -2.48,-0.56 -5.62,-1.34 -9.38,-2.3 -3.36,-0.88 -6.39,-1.97 -9.05,-3.34 -2.67,-1.34 -5.02,-3.11 -7.08,-5.31 -2.02,-2.15 -3.58,-4.66 -4.68,-7.57 -1.12,-2.91 -1.68,-6.27 -1.68,-10.08 0,-7.91 3.09,-14.54 9.25,-19.89 6.18,-5.36 14.04,-8.04 23.63,-8.04 5.47,0 10.64,0.53 15.52,1.63 4.89,1.1 9.39,2.67 13.56,4.68l0 15.59 -0.99 0c-3.09,-2.84 -7.08,-5.33 -11.94,-7.43 -4.84,-2.13 -9.92,-3.18 -15.25,-3.18 -6.05,0 -10.91,1.41 -14.63,4.21 -3.72,2.82 -5.58,6.51 -5.58,11.11 0,4.12 1.1,7.41 3.27,9.88 2.18,2.44 5.33,4.21 9.46,5.35 2.75,0.74 6.13,1.59 10.1,2.53 3.99,0.94 7.28,1.79 9.9,2.6 6.74,2.04 11.67,5.15 14.76,9.3 3.11,4.16 4.66,9.27 4.66,15.34 0,3.81 -0.78,7.57 -2.33,11.29 -1.55,3.72 -3.72,6.88 -6.52,9.45 -3.13,2.85 -6.7,5.02 -10.66,6.57 -3.94,1.52 -8.89,2.28 -14.83,2.28z"/>
 </g>
</svg>
