<?xml version="1.0" encoding="UTF-8"?>
<!DOCTYPE svg PUBLIC "-//W3C//DTD SVG 1.1//EN" "http://www.w3.org/Graphics/SVG/1.1/DTD/svg11.dtd">
<!-- Creator: CorelDRAW 2019 (64-Bit) -->
<svg xmlns="http://www.w3.org/2000/svg" xml:space="preserve" width="576px" height="510px" version="1.1" style="shape-rendering:geometricPrecision; text-rendering:geometricPrecision; image-rendering:optimizeQuality; fill-rule:evenodd; clip-rule:evenodd"
viewBox="0 0 576 510"
 xmlns:xlink="http://www.w3.org/1999/xlink">
 <defs>
  <style type="text/css">
   <![CDATA[
    .fil1 {fill:#5B5E4B}
    .fil0 {fill:#A9B835}
   ]]>
  </style>
 </defs>
 <g id="Layer_x0020_1">
  <metadata id="CorelCorpID_0Corel-Layer"/>
  <path class="fil0" d="M122.64 136c-1.46,3.66 -7.1,16.79 -9.64,18.81 -1.73,8.1 -20,45.27 -20,72.19 -2.57,-3.69 -7.66,-28.58 -27.98,-44.02 -5.57,-4.23 -8.68,-5.62 -15.02,-8.98l-20 21 -1.13 1c-2.25,3.99 -17.45,19.27 -20.7,23.16 -2.26,2.7 -3.9,5.48 -7.37,7.41 1.22,1.17 0.31,0.55 2.08,1.49 1.25,0.67 1.68,0.76 2.95,1.17 4.45,1.43 12.12,3.37 14.79,6.77 16.95,3.81 50.47,40.7 59.1,52.28 1.52,2.03 2.16,3.16 3.7,5.3l7.18 10.82c1.72,2.57 2.66,3.42 3.4,6.62 3.5,2.28 5.82,8.47 8.58,12.56l2.42 -11.95c2.1,-32.01 26.96,-89.42 45.2,-116.43 2.81,-4.16 6.33,-11.12 9.39,-14.2 1.66,-3.47 10.03,-15.14 12.41,-16.51 2.6,-5.11 28.32,-34.38 33.24,-39.25l31.51 -29.49c4.43,-4.12 30.37,-25.45 35.25,-26.75 -0.35,-4.26 -3.14,-6.53 -5.43,-9.57 -2.41,-3.2 -4.13,-5.51 -6.43,-8.57 -3.98,-5.32 -35.79,-49.62 -39.14,-51.86 -7.83,5.24 -48.16,57.92 -52.86,64.14 -9.01,11.94 -26.71,38.36 -34.8,53.2l-10.7 19.66z"/>
  <path class="fil0" d="M487 505l34 0 1 -82c0,5.4 6.34,34.2 7.75,41.25 2.76,13.81 5.16,27.48 8.25,40.75l34 0 0 -174c-40.34,0 -34.01,-4.54 -34,16l-1 60c0,-5.29 -5.4,-31.32 -6.74,-38.26l-7.26 -37.74 -36 0 0 174z"/>
  <path class="fil0" d="M364 164l9 88 -15 0 4.42 -65.58c0.87,-5.8 1.58,-16.67 1.58,-22.42zm-46 145l35 0c0,-9.16 2,-19.26 2,-28l21 0c0,10.05 2,18.89 2,28l34 0 -15.99 -167.01c-0.11,-3.98 -0.13,-8.99 -4.01,-8.99l-54 0c-4.58,0 -3.65,10.88 -4.72,19.28 -0.48,3.75 -0.65,8.3 -0.99,11.01 -3.25,25.34 -4.67,52.34 -7.46,78.54l-6.83 67.17z"/>
  <path class="fil0" d="M429 361c3.26,2.39 2.64,15.29 3.07,20.94 0.53,7.07 1.56,14.13 1.95,22.04l3.98 45.02 -15 0 4.94 -65.06c0.63,-8.26 1.06,-14.37 1.06,-22.94zm-45 144l34 0c1.44,-6.17 2,-20.25 2,-28l21 0c0,10.12 2,18.13 2,28l34 0c-1.47,-6.33 -1.4,-13.61 -2.17,-20.83l-14.83 -153.17 -59 0 -17 174z"/>
  <path class="fil0" d="M128 379l0 84c0,26.59 16.4,44 43,44 26.55,0 43,-14.42 43,-41l0 -36 -35 0 0 29c0,21.87 -16,17.76 -16,4l0 -90c0,-13.75 16,-18.14 16,4l0 24 35 0c0,-20.72 2.97,-45.15 -9.73,-58.27 -13.13,-13.58 -22.36,-12.73 -39.27,-12.73 -11.54,0 -21.71,6.06 -28.16,14.84 -5.44,7.41 -8.84,21.38 -8.84,34.16z"/>
  <path class="fil0" d="M277 267c0,5.36 -1.87,11 -8,11 -16.54,0 -1.73,-35 -11,-35l-30 0c-3.39,0 -3,1.76 -3,5 0,35.79 3.62,63 46,63 14.84,0 25.89,-5.03 31.84,-14.16 6.45,-9.91 9.16,-23.14 9.16,-38.84 0,-29.8 -17.06,-43.38 -37.73,-63.27 -3.93,-3.78 -5.07,-3.4 -8.72,-8.27 -7.89,-10.52 -7.09,-21.46 -0.55,-21.46 7.62,0 10,-0.35 10,19l36 0c0,-31.24 -10.82,-52 -42,-52 -30.53,0 -44.43,16.52 -43.44,46.73 0.72,22.1 15.87,37.46 31.68,52.03 11.5,10.61 19.76,17.54 19.76,36.24z"/>
  <path class="fil0" d="M54 467c0,-7.37 -0.05,-17.19 5,-23 1.16,5 3.3,9.12 5.28,13.72 0.79,1.83 5.72,13.66 5.72,14.28 0,7.38 -16,18.81 -16,-5zm19 -93c2.76,0 7,-0.57 7,5 0,6.48 -3.1,13.39 -7,16 -0.35,-4.25 -8.02,-21 0,-21zm-36 4c0,10.22 0.02,11.96 3.36,21.64l5.64 14.36c-1.34,1.82 -2.94,2.6 -4.76,4.25 -1.58,1.44 -3.1,2.99 -4.4,4.59 -18.16,22.51 -19.73,65.85 1.53,79.79 20.04,13.15 39.83,-4.88 42.63,-5.63 0.4,4.82 1.6,3.18 2,8l34 0c-0.36,-4.29 -12.82,-32.46 -15.37,-38.71 -1.74,-4.28 -1.24,-5.17 0.46,-9.15 1.39,-3.25 2.8,-6.01 4.56,-9.49 1.76,-3.49 2.79,-5.07 5.11,-7.89 2.64,-3.21 3.2,-5.68 7.24,-6.76 -0.39,-4.63 -9.16,-15.75 -13,-23 -5.18,2.74 -6.79,5.01 -10.3,9.7 -1.61,2.16 -2.68,3.5 -4.02,5.98 -0.73,1.33 -1.07,2.25 -1.67,3.33 -0.11,0.2 -0.24,0.46 -0.36,0.65l-1.65 2.34c-1.02,-4.38 -3.89,-8.24 -5,-13 1.73,-2.58 23,-17.74 23,-39 0,-42.55 -69,-40.07 -69,-2z"/>
  <path class="fil0" d="M503 136l0 173 73 0 0 -34 -36 0 0 -40 30 0c2.3,0 3,-0.69 3,-3l0 -28c0,-2.3 -0.7,-3 -3,-3l-30 0 0 -33 34 0 0 -32c0,-2.3 -0.7,-3 -3,-3l-65 0c-2.3,0 -3,0.7 -3,3z"/>
  <path class="fil1" d="M172 164.49c-2.38,1.37 -10.75,13.04 -12.41,16.51 24.55,31.92 24.38,74.87 0.67,101.26 -2.45,2.73 -3.69,5.09 -6.55,7.45 -21.76,18.02 -24.36,15.27 -48.71,21.92l-2.42 11.95c-2.76,-4.09 -5.08,-10.28 -8.58,-12.56 -32.68,-0.96 -62.11,-26.09 -70.81,-58.21 -1.75,-6.44 -1.49,-9.51 -2.57,-16.81 -2.67,-3.4 -10.34,-5.34 -14.79,-6.77 -1.27,-0.41 -1.7,-0.5 -2.95,-1.17 -1.77,-0.94 -0.86,-0.32 -2.08,-1.49 3.47,-1.93 5.11,-4.71 7.37,-7.41 3.25,-3.89 18.45,-19.17 20.7,-23.16l1.13 -1c2.56,-11 20.09,-25.61 31.04,-31.96 12.16,-7.06 41.67,-13.5 51.96,-8.23 2.54,-2.02 8.18,-15.15 9.64,-18.81 -6.87,-4.16 -30.55,-2.89 -39.38,-1.74 -12.29,1.61 -23.76,6.78 -33.29,11.72 -17.12,8.87 -33.91,29.1 -41.96,47.03 -14.53,32.36 -8.68,75.51 15.21,102.77 44.02,50.22 115.78,45.35 152.94,-0.62 17.34,-21.45 21.69,-39.35 21.85,-67.17 0.13,-22.01 -11.37,-48.61 -26.01,-63.5z"/>
  <path class="fil0" d="M305 334l0 171 73 0 0 -34 -37 0 0 -39 33 0 0 -34 -33 0 0 -33 34 0 0 -34 -67 0c-2.3,0 -3,0.7 -3,3z"/>
  <path class="fil0" d="M422 136l0 173 36 0 0 -79 33 0 0 -32c0,-2.3 -0.7,-3 -3,-3l-30 0 0 -27 35 0 0 -32c0,-2.3 -0.7,-3 -3,-3l-65 0c-2.3,0 -3,0.7 -3,3z"/>
  <polygon class="fil0" points="225,505 296,505 296,475 260,475 260,331 225,331 "/>
 </g>
</svg>
